<?xml version="1.0" encoding="UTF-8" standalone="no"?>
<svg
   xmlns:dc="http://purl.org/dc/elements/1.1/"
   xmlns:cc="http://creativecommons.org/ns#"
   xmlns:rdf="http://www.w3.org/1999/02/22-rdf-syntax-ns#"
   xmlns:svg="http://www.w3.org/2000/svg"
   xmlns="http://www.w3.org/2000/svg"
   xmlns:sodipodi="http://sodipodi.sourceforge.net/DTD/sodipodi-0.dtd"
   xmlns:inkscape="http://www.inkscape.org/namespaces/inkscape"
   sodipodi:docname="NI_icon.svg"
   inkscape:version="1.0 (4035a4fb49, 2020-05-01)"
   id="svg8"
   version="1.1"
   viewBox="0 0 33.866667 33.866667"
   height="128"
   width="128">
  <defs
     id="defs2" />
  <sodipodi:namedview
     inkscape:window-maximized="1"
     inkscape:window-y="-9"
     inkscape:window-x="-9"
     inkscape:window-height="1001"
     inkscape:window-width="1920"
     units="px"
     showgrid="false"
     inkscape:document-rotation="0"
     inkscape:current-layer="layer1"
     inkscape:document-units="px"
     inkscape:cy="68.544249"
     inkscape:cx="82.163707"
     inkscape:zoom="5.5947135"
     inkscape:pageshadow="2"
     inkscape:pageopacity="0.0"
     borderopacity="1.0"
     bordercolor="#666666"
     pagecolor="#ffffff"
     id="base" />
  <metadata
     id="metadata5">
    <rdf:RDF>
      <cc:Work
         rdf:about="">
        <dc:format>image/svg+xml</dc:format>
        <dc:type
           rdf:resource="http://purl.org/dc/dcmitype/StillImage" />
        <dc:title></dc:title>
      </cc:Work>
    </rdf:RDF>
  </metadata>
  <g
     id="layer1"
     inkscape:groupmode="layer"
     inkscape:label="レイヤー 1">
    <path
       id="path34"
       style="fill:#00ff00;stroke-width:0.705555"
       d="m 29.676055,32.455637 a 2.8222222,2.8222222 0 0 0 2.779501,-2.822224 2.8222222,2.8222222 0 0 0 -2.822221,-2.822222 2.8222222,2.8222222 0 0 0 -2.44464,1.411112 H 14.111112 A 8.466667,8.466667 0 0 1 5.6444448,19.755637 V 6.6780536 A 2.8222222,2.8222222 0 0 0 7.0555558,4.2334135 2.8222222,2.8222222 0 0 0 4.2333335,1.411192 2.8222222,2.8222222 0 0 0 1.4111112,4.2334135 2.8222222,2.8222222 0 0 0 2.8222223,6.6780536 V 19.755637 A 11.288888,11.288888 0 0 0 14.111112,31.044525 h 13.078962 a 2.8222222,2.8222222 0 0 0 2.443261,1.411112 2.8222222,2.8222222 0 0 0 0.04272,0 z m -0.0069,-1.411112 a 1.4111111,1.4111111 0 0 1 -0.0014,0 1.4111111,1.4111111 0 0 1 -0.03445,0 1.4111111,1.4111111 0 0 1 -1.411112,-1.376662 1.4111111,1.4111111 0 0 1 0,-0.03445 1.4111111,1.4111111 0 0 1 1.411157,-1.411109 1.4111111,1.4111111 0 0 1 1.411112,1.411109 1.4111111,1.4111111 0 0 1 -1.375283,1.411112 z M 4.2691623,5.6445256 h -0.00138 -0.034451 A 1.4111111,1.4111111 0 0 1 2.8222223,4.2334135 1.4111111,1.4111111 0 0 1 4.2333335,2.8223015 1.4111111,1.4111111 0 0 1 5.6444448,4.2334135 1.4111111,1.4111111 0 0 1 4.2691623,5.6445256 Z" />
    <path
       d="m 4.1906143,1.4111919 c -1.541962,0.023343 -2.7796799,1.2800836 -2.7795031,2.8222224 -10e-8,1.5586703 1.2635519,2.8222222 2.8222223,2.8222222 1.0084699,1.87e-4 1.9404049,-0.5377504 2.4446398,-1.4111111 H 19.755557 c 4.676011,0 8.466666,3.7906559 8.466666,8.4666666 v 13.077583 a 2.8222221,2.8222221 0 0 1 1.411112,-0.377582 2.8222221,2.8222221 0 0 1 1.411111,0.377582 V 14.111192 c 0,-6.2346811 -5.054208,-11.2888893 -11.288889,-11.2888889 H 6.6765952 C 6.1726064,1.9493688 5.2413111,1.4114971 4.2333335,1.4111919 c -0.01424,-1.077e-4 -0.02848,-1.077e-4 -0.042719,0 z m 0.00689,1.4111112 h 0.00138 c 0.011482,-1.402e-4 0.022967,-1.402e-4 0.03445,0 0.7660771,-2.284e-4 1.3924081,0.6108114 1.4111111,1.3766602 1.402e-4,0.011483 1.402e-4,0.022968 0,0.034451 10e-8,0.7793351 -0.631776,1.4111112 -1.4111111,1.4111111 C 3.4539991,5.6445255 2.822223,5.0127494 2.8222231,4.2334143 2.8219754,3.4678594 3.4321964,2.841741 4.1975043,2.8223031 Z M 31.339346,27.385835 a 2.8222221,2.8222221 0 0 1 0.02894,0.02205 c -0.0096,-0.0075 -0.01926,-0.0147 -0.02894,-0.02205 z m -3.934299,0.516764 c -0.0086,0.01113 -0.01772,0.02182 -0.02618,0.03307 a 2.8222221,2.8222221 0 0 1 0.02618,-0.03307 z m -0.376205,2.815332 c 0.0039,0.0094 0.0084,0.01824 0.0124,0.02756 a 2.8222221,2.8222221 0 0 1 -0.0124,-0.02756 z m 3.71657,1.507574 a 2.8222221,2.8222221 0 0 1 -0.02756,0.0124 c 0.0094,-0.0039 0.01824,-0.0084 0.02756,-0.0124 z"
       style="fill:#ff0000;stroke-width:0.705555"
       id="rect19" />
    <path
       d="m 29.590615,1.4112728 a 2.8222222,2.8222222 0 0 0 -2.779501,2.8222223 2.8222222,2.8222222 0 0 0 0.05099,0.5277886 L 4.7625002,26.860885 a 2.8222222,2.8222222 0 0 0 -0.5291667,-0.0496 2.8222222,2.8222222 0 0 0 -0.04272,0 2.8222222,2.8222222 0 0 0 -2.7795023,2.82221 2.8222222,2.8222222 0 0 0 2.8222223,2.822225 2.8222222,2.8222222 0 0 0 2.8222223,-2.822225 2.8222222,2.8222222 0 0 0 -0.1543403,-0.920528 L 28.712804,6.9013771 a 2.8222222,2.8222222 0 0 0 0.920531,0.1543402 2.8222222,2.8222222 0 0 0 2.822221,-2.8222222 2.8222222,2.8222222 0 0 0 -2.822221,-2.8222223 2.8222222,2.8222222 0 0 0 -0.04272,0 z m 0.0069,1.4111111 a 1.4111111,1.4111111 0 0 1 0.0014,0 1.4111111,1.4111111 0 0 1 0.03445,0 1.4111111,1.4111111 0 0 1 1.411112,1.4111112 1.4111111,1.4111111 0 0 1 -1.411157,1.411111 1.4111111,1.4111111 0 0 1 -1.411112,-1.411111 1.4111111,1.4111111 0 0 1 1.375283,-1.4111112 z M 4.1975044,28.222386 a 1.4111111,1.4111111 0 0 1 0.00138,0 1.4111111,1.4111111 0 0 1 0.034451,0 1.4111111,1.4111111 0 0 1 1.4111088,1.411109 1.4111111,1.4111111 0 0 1 -1.4111107,1.411112 1.4111111,1.4111111 0 0 1 -1.4111112,-1.411112 1.4111111,1.4111111 0 0 1 1.3752821,-1.411109 z"
       style="fill:#0000ff;stroke-width:0.6652"
       id="rect83" />
    <text
       id="text72"
       y="26.536528"
       x="0.44424173"
       style="font-style:normal;font-weight:normal;font-size:25.2956px;line-height:1.25;font-family:sans-serif;fill:#000000;fill-opacity:1;stroke:#000000;stroke-width:2.66097;stroke-miterlimit:4;stroke-dasharray:none;stroke-opacity:1"
       xml:space="preserve"><tspan
         style="font-style:normal;font-variant:normal;font-weight:normal;font-stretch:normal;font-family:'UD Digi Kyokasho NK-B';-inkscape-font-specification:'UD Digi Kyokasho NK-B';stroke:#000000;stroke-width:2.66097;stroke-miterlimit:4;stroke-dasharray:none;stroke-opacity:1"
         y="26.536528"
         x="0.44424173"
         id="tspan70"
         sodipodi:role="line">NI</tspan></text>
  </g>
</svg>
